# Blender v3.3.1 OBJ File: 'testNav.blend'
# www.blender.org
mtllib testNav.mtl
o NavMesh_平面
v -5.500000 0.000000 16.500000
v 5.500000 0.000000 16.500000
v 5.500000 0.000000 -5.500000
v 5.500000 0.000000 5.500000
v -5.500000 0.000000 -5.500000
v -5.500000 0.000000 5.500000
v 16.500000 0.000000 16.500000
v 16.500000 0.000000 5.500000
vt 0.666667 0.333333
vt 0.333333 0.666667
vt 0.333333 0.333333
vt 0.666667 0.666667
vt 0.666667 0.666667
vt 0.333333 0.666667
vt 0.333333 0.666667
vt 0.333333 0.666667
vn 0.0000 1.0000 0.0000
usemtl None
s off
f 5/1/1 4/2/1 3/3/1
f 6/4/1 1/5/1 2/6/1
f 5/1/1 6/4/1 4/2/1
f 6/4/1 2/6/1 4/2/1
f 2/6/1 8/7/1 4/2/1
f 2/6/1 7/8/1 8/7/1
