# Blender v3.3.1 OBJ File: '2WaySection.blend'
# www.blender.org
mtllib 2Way_0.mtl
o NavMesh_平面
v 5.500000 0.000000 -5.500000
v -5.500000 0.000000 -5.500000
v 5.500000 0.000000 5.500000
v -5.500000 0.000000 5.500000
v 1.500000 0.000000 -5.500000
v -1.500000 0.000000 -5.500000
v -1.500000 0.000000 5.500000
v 1.500000 0.000000 5.500000
v 5.500000 0.000000 1.500000
v 5.500000 0.000000 -1.500000
v -5.500000 0.000000 -1.500000
v -5.500000 0.000000 1.500000
v 1.500000 0.000000 -1.500000
v 1.500000 0.000000 1.500000
v -1.500000 0.000000 -1.500000
v -1.500000 0.000000 1.500000
v -6.500000 0.000000 -1.500000
v -6.500000 0.000000 1.500000
v -1.500000 0.000000 6.500000
v 1.500000 0.000000 6.500000
vt 1.000000 0.666667
vt 0.666667 1.000000
vt 0.666667 0.666667
vt 0.333333 0.666667
vt 0.000000 1.000000
vt 0.000000 0.666667
vt 0.333333 1.000000
vt 0.666667 0.000000
vt 0.333333 0.333333
vt 0.333333 0.000000
vt 0.666667 0.333333
vt 0.000000 0.333333
vt 0.000000 0.000000
vt 1.000000 0.000000
vt 1.000000 0.333333
vt 1.000000 0.666667
vt 0.333333 1.000000
vt 1.000000 1.000000
vt 1.000000 0.333333
vt 0.666667 1.000000
vn 0.0000 1.0000 0.0000
usemtl None
s off
f 12/1/1 7/2/1 16/3/1
f 14/4/1 3/5/1 9/6/1
f 16/3/1 8/7/1 14/4/1
f 6/8/1 13/9/1 5/10/1
f 15/11/1 14/4/1 13/9/1
f 5/10/1 10/12/1 1/13/1
f 13/9/1 9/6/1 10/12/1
f 2/14/1 15/11/1 6/8/1
f 11/15/1 16/3/1 15/11/1
f 11/15/1 18/16/1 12/1/1
f 7/2/1 20/17/1 8/7/1
f 12/1/1 4/18/1 7/2/1
f 14/4/1 8/7/1 3/5/1
f 16/3/1 7/2/1 8/7/1
f 6/8/1 15/11/1 13/9/1
f 15/11/1 16/3/1 14/4/1
f 5/10/1 13/9/1 10/12/1
f 13/9/1 14/4/1 9/6/1
f 2/14/1 11/15/1 15/11/1
f 11/15/1 12/1/1 16/3/1
f 11/15/1 17/19/1 18/16/1
f 7/2/1 19/20/1 20/17/1
