# Blender v3.3.1 OBJ File: 'boss0.blend'
# www.blender.org
mtllib boss0.mtl
o head_立方体
v -0.763102 8.270792 -0.757621
v -0.596979 6.527267 0.917551
v -0.564294 7.806530 0.745082
v -0.746546 8.292092 0.738139
v -0.568632 6.939561 -0.534815
v -0.499993 6.981853 -0.652929
v -0.685600 7.702797 -0.739234
v 0.773777 8.264348 0.764580
v 0.772202 6.720721 -0.782885
v 0.914593 7.703465 -0.527281
v -0.324734 6.907362 -0.576074
v -0.568749 6.343531 0.255592
v -1.062434 6.756615 0.091411
v -0.867385 8.468742 0.347085
v -0.391080 7.271859 -0.943988
v -0.766441 7.221584 -0.829787
v -0.107671 8.252516 -1.002431
v 0.759360 7.713217 0.808443
v 0.881112 7.293558 0.824499
v -0.282143 6.670879 1.169414
v -0.512574 7.350960 0.857742
v 0.070582 7.330651 1.236876
v -0.008321 8.042407 1.169430
v 0.568128 7.781676 0.170413
v -0.235666 8.733141 0.546162
v -0.777605 8.320710 -0.230367
v -0.931794 8.005612 0.274442
v -0.660084 7.632682 -0.287790
v 0.342063 7.374140 -0.507458
v -0.871326 6.757510 0.874658
v 0.868199 8.417249 -0.602382
v 0.638288 8.344619 -0.917778
v -0.727394 6.787512 -0.377945
v -1.089703 6.911971 0.291306
v -0.603811 7.623952 0.593777
v -0.057399 6.937787 -0.826251
v 0.184000 8.677690 -0.589491
v -0.004990 8.488108 -0.902320
v 0.735666 7.741289 -0.733982
v 0.757366 7.288494 -0.662883
v 0.929502 6.363568 -0.055225
v 1.078752 6.897989 -0.256682
v 1.060712 6.772287 0.208676
v 0.661644 8.295630 0.096368
v 0.731222 8.176709 -0.065593
v -0.163404 6.437071 0.917054
v 0.283472 6.545587 0.649431
v 0.674863 6.832030 0.650055
v -0.103758 8.545804 1.018287
v 0.270721 6.617723 -0.760746
v 0.090425 6.214036 0.259701
vt 0.211400 0.550740
vt 0.290828 0.656164
vt 0.092590 0.676045
vt 0.052588 0.534662
vt 0.186869 0.462008
vt 0.851055 0.664057
vt 0.776250 0.669585
vt 0.810659 0.512605
vt 0.563986 0.922495
vt 0.501813 0.815903
vt 0.563986 0.786765
vt 0.895292 0.593442
vt 0.558895 0.699847
vt 0.376949 0.625796
vt 0.503258 0.487807
vt 0.620053 0.604157
vt 0.377474 0.516776
vt 0.643291 0.490367
vt 0.205011 0.159345
vt 0.299419 0.211092
vt 0.124312 0.286013
vt 0.486964 0.780371
vt 0.486964 0.899982
vt 0.383835 0.799166
vt 0.370880 0.839159
vt 0.423082 1.000000
vt 0.616638 0.414493
vt 0.618484 0.282534
vt 0.696123 0.304104
vt 0.737053 0.131198
vt 0.858287 0.000000
vt 0.858287 0.198787
vt 0.683722 0.255973
vt 0.786704 0.292857
vt 0.740952 0.209663
vt 0.144510 0.128302
vt 0.065007 0.189421
vt 0.005906 0.103174
vt 0.228004 0.122423
vt 0.320327 0.109078
vt 0.643876 0.185059
vt 0.630902 0.206864
vt 0.898899 0.676404
vt 0.923830 0.789241
vt 0.852272 0.794318
vt 0.008954 0.174850
vt 0.103754 0.323393
vt 0.000000 0.283908
vt 0.241070 0.296969
vt 0.361357 0.256706
vt 0.270367 0.363284
vt 0.477321 0.187303
vt 0.599186 0.189996
vt 0.547798 0.230636
vt 0.667994 0.143396
vt 0.609536 0.780371
vt 0.511358 0.756973
vt 0.363838 0.412008
vt 0.363838 0.498457
vt 0.326895 0.465380
vt 0.875705 0.130826
vt 0.890268 0.063366
vt 0.966172 0.093158
vt 0.966172 0.291608
vt 0.858287 0.234877
vt 0.166746 0.723016
vt 0.018061 0.817583
vt 0.000000 0.728160
vt 0.053375 0.588301
vt 0.486964 0.780371
vt 0.768028 0.762372
vt 0.656096 0.743814
vt 0.788502 0.743072
vt 0.662115 0.644021
vt 0.181216 0.817583
vt 0.262763 0.715402
vt 0.278674 0.812743
vt 0.326895 0.711156
vt 0.517398 0.414493
vt 0.220371 0.000000
vt 0.315793 0.000581
vt 0.516519 0.000000
vt 0.370880 0.071835
vt 0.093894 0.025798
vt 0.744039 0.482008
vt 0.656645 0.566920
vt 0.370879 0.720706
vt 0.656096 0.727896
vt 0.737053 0.375101
vt 0.890583 0.000000
vt 0.370879 0.338475
vt 0.923831 0.493219
vt 0.636213 0.007192
vt 0.737053 0.072694
vt 0.370879 0.167462
vt 0.395535 0.209890
vt 0.477287 0.780371
vt 0.805213 0.414493
vt 0.389685 0.457087
vt 0.022389 0.463549
vt 0.167625 0.412008
vt 0.197458 0.412008
vn 0.4919 -0.3447 0.7995
vn 0.4684 0.1347 0.8732
vn 0.8652 0.3090 0.3950
vn 0.8871 -0.0966 0.4514
vn 0.7492 -0.0686 -0.6587
vn -0.4040 0.8942 -0.1930
vn 0.4894 0.8610 0.1388
vn -0.2942 0.9138 -0.2800
vn 0.4262 0.9042 -0.0292
vn -0.6299 0.1028 0.7698
vn -0.8616 0.1168 -0.4939
vn -0.9032 0.2705 -0.3334
vn -0.9202 0.3770 -0.1054
vn -0.4800 0.0867 -0.8730
vn 0.5217 -0.2002 -0.8293
vn -0.3111 0.2260 -0.9231
vn 0.1695 0.4755 -0.8632
vn -0.3996 0.2666 0.8771
vn -0.7842 -0.2865 0.5505
vn -0.3739 -0.7827 -0.4976
vn 0.8122 -0.0460 -0.5815
vn 0.7541 -0.0201 -0.6564
vn -0.6653 -0.7262 0.1732
vn -0.6460 -0.7623 0.0400
vn -0.9554 -0.0360 0.2930
vn -0.6453 0.4085 0.6455
vn -0.1294 -0.6778 -0.7238
vn -0.9849 -0.1707 0.0292
vn -0.4924 -0.6281 -0.6025
vn -0.1889 -0.8845 -0.4265
vn -0.2098 -0.5874 -0.7816
vn 0.1637 0.7967 -0.5818
vn 0.0598 0.3682 -0.9278
vn -0.3749 -0.1613 -0.9129
vn 0.1412 -0.2676 -0.9531
vn 0.4720 -0.6462 0.5997
vn 0.6153 -0.5040 0.6061
vn 0.8869 -0.0963 0.4517
vn 0.9647 -0.2002 -0.1713
vn 0.9542 0.0920 0.2847
vn 0.9554 -0.0482 -0.2915
vn -0.1882 -0.9499 0.2496
vn 0.4511 -0.7776 0.4380
vn -0.1574 -0.7602 0.6303
vn 0.4727 -0.5244 0.7082
vn -0.4609 0.7732 0.4356
vn -0.4511 0.1771 0.8747
vn -0.4979 -0.7727 -0.3937
vn 0.0297 -0.9313 -0.3632
vn 0.3328 -0.7932 0.5100
vn -0.5293 0.1987 0.8248
vn -0.6088 0.0077 0.7933
vn -0.5358 0.1449 0.8318
vn 0.8859 0.4381 0.1527
vn 0.8953 0.4329 -0.1053
vn 0.9321 0.2608 -0.2514
vn -0.3782 0.9206 -0.0976
vn 0.3478 0.9009 0.2596
vn -0.8247 0.3880 0.4115
vn -0.9235 -0.1276 -0.3617
vn 0.4842 0.1820 -0.8558
vn -0.3507 -0.0781 -0.9332
vn -0.3098 0.1889 -0.9319
vn -0.3432 -0.5980 -0.7243
vn -0.8176 -0.2830 0.5015
vn -0.9907 -0.1356 -0.0144
vn 0.8359 0.1343 -0.5322
vn 0.3150 0.8486 -0.4250
vn -0.5020 -0.7623 -0.4085
vn -0.7946 -0.5272 0.3013
vn -0.6459 -0.5776 -0.4991
vn -0.0345 -0.8225 -0.5677
vn -0.9417 0.0797 0.3270
vn -0.0017 -0.2022 -0.9793
vn -0.2294 -0.9062 -0.3553
vn 0.1587 -0.8723 -0.4625
vn -0.3187 0.8836 -0.3429
vn -0.2952 0.4798 -0.8262
vn 0.7482 -0.0678 -0.6600
vn -0.0292 -0.5020 -0.8644
vn 0.5820 -0.5647 0.5852
vn 0.8501 -0.3763 -0.3685
vn 0.9585 -0.2824 -0.0391
vn 0.9428 0.1391 0.3029
vn 0.3827 -0.4714 0.7946
vn -0.1967 -0.9469 0.2544
vn 0.4929 -0.6747 0.5495
vn -0.4568 -0.3958 0.7967
vn -0.4951 0.7242 0.4801
vn 0.3614 0.8969 0.2549
vn 0.3584 0.3301 0.8733
vn -0.5427 -0.1920 0.8177
vn 0.4455 0.0594 0.8933
vn -0.1528 -0.7966 -0.5849
vn 0.4532 0.1650 0.8760
vn -0.9673 0.1647 -0.1926
vn -0.9854 0.1507 0.0791
vn 0.0056 -0.7209 -0.6930
usemtl color
s off
f 22/1/1 20/2/1 48/3/1
f 18/4/2 23/5/2 22/1/2
f 10/6/3 24/7/3 42/8/3
f 10/9/4 45/10/4 24/11/4
f 40/12/5 10/6/5 42/8/5
f 37/13/6 26/14/6 25/15/6
f 37/13/7 25/15/7 44/16/7
f 26/14/8 14/17/8 25/15/8
f 25/15/9 8/18/9 44/16/9
f 35/19/10 27/20/10 34/21/10
f 27/22/11 28/23/11 34/24/11
f 34/24/12 28/23/12 13/25/12
f 28/23/13 16/26/13 13/25/13
f 17/27/14 15/28/14 7/29/14
f 15/30/15 17/31/15 29/32/15
f 16/33/16 7/29/16 15/28/16
f 29/32/17 9/34/17 36/35/17
f 21/36/18 30/37/18 20/38/18
f 3/39/19 4/40/19 35/19/19
f 5/41/20 16/33/20 6/42/20
f 39/43/21 32/44/21 31/45/21
f 10/6/22 39/43/22 31/45/22
f 2/46/23 13/47/23 12/48/23
f 30/37/24 34/21/24 2/46/24
f 3/39/25 35/19/25 21/36/25
f 35/19/26 30/37/26 21/36/26
f 15/28/27 6/42/27 16/33/27
f 28/49/28 26/50/28 7/51/28
f 50/52/29 11/53/29 36/54/29
f 11/53/30 5/41/30 6/42/30
f 5/41/31 11/53/31 33/55/31
f 32/56/32 38/57/32 37/13/32
f 32/58/33 17/59/33 38/60/33
f 39/61/34 40/62/34 29/63/34
f 39/61/35 17/64/35 32/65/35
f 47/66/36 41/67/36 48/3/36
f 43/68/37 19/69/37 48/3/37
f 45/10/38 44/70/38 24/11/38
f 44/71/39 8/72/39 24/7/39
f 45/73/40 10/6/40 31/45/40
f 18/74/41 24/7/41 8/72/41
f 51/75/42 46/76/42 12/77/42
f 47/66/43 46/76/43 51/75/43
f 46/76/44 20/2/44 2/78/44
f 48/3/45 20/2/45 46/76/45
f 14/17/46 49/79/46 25/15/46
f 4/40/47 23/80/47 49/81/47
f 50/52/48 51/82/48 11/53/48
f 41/83/49 51/82/49 50/52/49
f 41/67/50 47/66/50 51/75/50
f 20/38/51 22/84/51 21/36/51
f 23/80/52 3/39/52 22/84/52
f 22/84/53 3/39/53 21/36/53
f 42/8/54 24/7/54 43/85/54
f 43/85/55 24/7/55 19/86/55
f 19/86/56 24/7/56 18/74/56
f 1/87/57 26/14/57 37/13/57
f 31/88/58 37/13/58 44/16/58
f 30/37/59 35/19/59 34/21/59
f 28/49/60 27/20/60 26/50/60
f 15/30/61 29/32/61 36/35/61
f 1/89/62 17/27/62 7/29/62
f 9/90/63 29/63/63 40/62/63
f 15/28/64 36/54/64 6/42/64
f 27/20/65 35/19/65 4/40/65
f 26/50/66 1/91/66 7/51/66
f 40/12/67 42/8/67 9/92/67
f 37/13/68 31/88/68 32/56/68
f 12/93/69 13/94/69 33/55/69
f 13/47/70 2/46/70 34/21/70
f 33/55/71 13/94/71 16/33/71
f 12/93/72 33/55/72 11/53/72
f 4/40/73 14/95/73 27/20/73
f 9/96/74 50/52/74 36/54/74
f 36/54/75 11/53/75 6/42/75
f 41/83/76 50/52/76 9/96/76
f 37/13/77 38/57/77 1/87/77
f 1/87/78 38/57/78 17/97/78
f 39/43/79 10/6/79 40/12/79
f 17/64/80 39/61/80 29/63/80
f 48/3/81 41/67/81 43/68/81
f 41/98/82 9/92/82 42/8/82
f 43/85/83 41/98/83 42/8/83
f 44/71/84 45/73/84 31/45/84
f 22/1/85 48/3/85 19/69/85
f 12/77/86 46/76/86 2/78/86
f 47/66/87 48/3/87 46/76/87
f 30/37/88 2/46/88 20/38/88
f 14/17/89 4/99/89 49/79/89
f 25/15/90 49/79/90 8/18/90
f 8/100/91 49/101/91 23/5/91
f 4/40/92 3/39/92 23/80/92
f 8/100/93 23/5/93 18/4/93
f 11/53/94 51/82/94 12/93/94
f 22/1/95 19/69/95 18/4/95
f 27/20/96 14/95/96 26/50/96
f 28/49/97 7/51/97 16/102/97
f 5/41/98 33/55/98 16/33/98
o body_立方体.001
v 2.287089 5.292359 -0.522432
v 0.574011 3.918319 -0.829763
v -2.101536 0.889514 0.437222
v -1.562417 0.480622 0.786918
v -2.210694 0.932829 0.742445
v -1.813914 0.820812 -0.621806
v -2.143814 1.097316 -0.625073
v -1.972132 5.058974 -0.690722
v -1.933100 3.586488 -1.039841
v -1.892119 5.026815 -0.318554
v 2.267519 0.428459 -0.397065
v 2.144230 0.822066 -0.688398
v -1.904185 1.877200 0.611045
v -2.736578 3.264099 -0.176111
v -2.583851 3.645175 -0.629618
v -0.735693 1.933990 -0.652121
v 2.435374 2.988845 0.147980
v 1.897047 5.705125 0.143101
v 1.976118 4.192706 -0.517389
v 2.149604 2.477048 0.725226
v 0.182225 2.586535 1.047189
v 1.851231 3.969251 0.678316
v 1.633445 1.335629 0.641014
v -0.291469 1.732929 1.020539
v 0.050994 3.755822 0.977248
v 2.120971 2.708758 -0.423562
v 0.460087 6.023085 -0.504919
v -0.390519 6.088398 0.288304
v -2.658170 1.344934 0.294526
v -1.988421 3.151245 0.284518
v -0.865298 3.573956 -0.692680
v 0.713210 2.404524 -0.880522
v -1.763586 4.256775 0.732862
v -1.817011 1.206517 -0.446404
v 1.705284 1.166328 0.521116
v 2.035294 5.093124 0.711575
v 2.046412 5.105312 -0.676028
v -2.320579 0.640630 0.066042
v -2.598061 0.925536 0.076167
v -1.691029 3.183455 0.497229
v -2.018851 5.436664 0.312685
v -1.603358 5.071992 0.676202
v -1.986564 2.106978 -0.671954
v -0.920639 0.723517 -0.518292
v 1.695793 5.790970 -0.667026
v -0.076664 5.599575 -0.870888
v 1.615363 5.377378 -0.805026
v 1.726856 2.672813 -0.654024
v 1.823386 4.130469 -0.588212
v 2.583843 0.906686 0.247908
v 2.801117 -0.067017 -0.067410
v 2.949817 0.603801 -0.158360
v 0.770084 1.014866 0.652986
v -0.908911 0.493965 1.049449
v -0.652209 6.165981 0.560210
v 1.060474 5.419538 0.803981
v -0.160293 5.832651 1.019222
v 0.677695 0.917966 -0.671097
v 1.176426 -0.245502 0.086939
v -1.505836 0.134467 0.259366
v 0.085981 -0.392829 0.281626
vt 0.299045 0.607588
vt 0.313165 0.668009
vt 0.210113 0.704082
vt 0.154550 0.073679
vt 0.223132 0.188453
vt 0.088333 0.099664
vt 0.261610 0.114861
vt 0.259972 0.000000
vt 0.159802 0.215113
vt 0.066045 0.136936
vt 0.026510 0.179244
vt 0.769170 0.194509
vt 0.730386 0.285917
vt 0.676895 0.202811
vt 0.597585 0.718718
vt 0.579144 0.556668
vt 0.699683 0.626280
vt 0.468702 0.530573
vt 0.575877 0.501102
vt 0.658922 0.772057
vt 0.498559 0.473828
vt 0.356873 0.147286
vt 0.246981 0.227366
vt 0.183160 0.292093
vt 0.175629 0.341294
vt 0.261915 0.419145
vt 0.215510 0.446431
vt 0.505850 0.104495
vt 0.501403 0.189008
vt 0.426032 0.157683
vt 0.606292 0.162604
vt 0.604496 0.095160
vt 0.576943 0.000000
vt 0.067648 0.229177
vt 0.116195 0.227794
vt 0.131056 0.278330
vt 0.764048 0.779732
vt 0.800608 0.798781
vt 0.761262 0.801738
vt 0.801900 0.534134
vt 0.715203 0.500942
vt 0.801900 0.427678
vt 0.933677 0.282722
vt 0.960067 0.258565
vt 0.986607 0.297131
vt 1.000000 0.261934
vt 0.915302 0.214887
vt 0.442528 0.653554
vt 0.356873 0.629590
vt 0.299158 0.095597
vt 0.418881 0.230818
vt 0.475209 0.259569
vt 0.583601 0.257998
vt 0.542038 0.781374
vt 0.676895 0.046636
vt 0.446504 0.016357
vt 0.424366 0.720806
vt 0.906295 0.112395
vt 0.929365 0.204827
vt 1.000000 0.164373
vt 0.112251 0.801705
vt 0.013162 0.758838
vt 0.069324 0.689761
vt 0.000000 0.725774
vt 0.852665 0.003109
vt 0.859602 0.134328
vt 0.740947 0.034758
vt 0.761262 0.766750
vt 0.715203 0.717904
vt 0.761262 0.608398
vt 0.697582 0.078747
vt 0.306395 0.554173
vt 0.160409 0.582967
vt 0.181454 0.515282
vt 0.338187 0.748788
vt 0.189416 0.825217
vt 0.668815 0.492330
vt 0.247639 0.450655
vt 0.338187 0.446431
vt 0.184847 0.447978
vt 0.715203 0.529205
vt 0.664471 0.341257
vt 0.566887 0.414746
vt 0.488038 0.427678
vt 0.167570 0.664116
vt 0.084997 0.326799
vt 0.393898 0.373693
vt 0.356873 0.312451
vt 0.854051 0.351579
vt 0.311262 0.306592
vt 0.357512 0.712546
vt 0.741738 0.608398
vt 0.407440 0.208494
vt 0.425970 0.227403
vt 0.674796 0.284673
vt 0.152424 0.349706
vt 0.355265 0.367008
vt 0.356873 0.430049
vt 0.800608 0.726855
vt 0.378914 0.800190
vt 0.676895 0.405685
vt 0.692120 0.356861
vt 0.716303 0.405685
vt 0.639237 0.800190
vt 0.965895 0.071659
vt 0.676895 0.414174
vt 0.714993 0.000000
vt 0.801904 0.726855
vt 0.761262 0.660848
vt 0.786161 0.665938
vt 0.614621 0.427678
vt 0.000000 0.325158
vt 0.801904 0.608398
vt 0.747441 0.356861
vt 0.148318 0.679992
vn 0.2272 -0.1561 0.9612
vn -0.2737 0.0268 0.9614
vn -0.1903 -0.2228 0.9561
vn -0.1427 -0.0345 0.9892
vn -0.2340 0.1222 0.9645
vn -0.2321 0.1381 0.9628
vn 0.8091 0.1794 0.5596
vn 0.1707 0.9800 0.1023
vn -0.3213 0.7829 -0.5327
vn 0.1914 0.9799 0.0563
vn -0.3698 0.4099 0.8338
vn -0.8757 -0.0176 0.4826
vn -0.5831 0.2205 0.7819
vn -0.8462 0.1076 -0.5218
vn 0.0126 -0.0237 -0.9996
vn -0.1442 -0.0359 -0.9889
vn -0.1005 0.0241 -0.9946
vn -0.0814 -0.0559 -0.9951
vn -0.5660 -0.8199 -0.0861
vn -0.5347 0.2843 0.7958
vn 0.3370 0.3920 -0.8560
vn 0.3035 0.2274 -0.9253
vn 0.4002 0.2163 -0.8905
vn 0.4035 0.2180 -0.8886
vn 0.6248 -0.1802 -0.7597
vn -0.5471 -0.4469 0.7078
vn -0.8363 0.3678 -0.4067
vn -0.5622 0.1668 0.8100
vn -0.0187 -0.2462 -0.9690
vn -0.0923 -0.0232 -0.9955
vn -0.1034 -0.1254 -0.9867
vn 0.0193 0.6396 -0.7685
vn 0.0376 -0.0099 -0.9992
vn -0.0783 -0.0571 -0.9953
vn -0.3743 0.9135 0.1594
vn 0.4161 0.0135 -0.9092
vn 0.2099 -0.1334 -0.9686
vn 0.2053 -0.1343 -0.9694
vn 0.1213 -0.2812 0.9519
vn 0.7169 -0.0648 0.6941
vn 0.5683 0.1212 -0.8138
vn 0.7774 -0.2171 0.5903
vn 0.8607 0.0855 0.5019
vn 0.1563 0.0622 0.9857
vn 0.3236 -0.3852 0.8642
vn 0.1711 0.8070 0.5653
vn 0.1729 -0.0023 0.9849
vn 0.1701 -0.0570 0.9838
vn 0.2927 0.6854 0.6667
vn -0.0271 -0.5538 -0.8322
vn -0.0573 -0.6151 -0.7864
vn 0.2043 -0.3758 0.9039
vn -0.6982 -0.6306 0.3389
vn -0.2514 -0.6711 -0.6975
vn -0.2483 0.1077 0.9627
vn 0.1652 0.0774 0.9832
vn -0.1649 0.1882 0.9682
vn 0.8638 0.0526 -0.5010
vn 0.4920 0.1270 -0.8613
vn 0.7948 0.2429 -0.5562
vn 0.6542 0.7518 -0.0829
vn -0.3757 0.7994 -0.4687
vn -0.3149 0.7659 -0.5605
vn -0.6686 -0.1188 -0.7341
vn -0.4942 0.1880 0.8488
vn -0.4722 0.1527 0.8681
vn -0.5261 -0.0175 0.8502
vn -0.8980 0.4353 0.0634
vn 0.2976 -0.2405 -0.9239
vn -0.5299 -0.6389 -0.5577
vn -0.8905 0.3951 0.2256
vn -0.0489 -0.6041 -0.7954
vn -0.5227 -0.5327 0.6656
vn -0.5012 -0.5523 0.6661
vn -0.6130 -0.5779 -0.5387
vn -0.0689 -0.9515 -0.3000
vn -0.6128 -0.7828 -0.1081
vn -0.5528 -0.2142 0.8053
vn -0.5359 -0.1854 -0.8236
vn -0.8014 -0.2969 -0.5193
vn 0.5065 -0.1185 -0.8540
vn -0.5120 0.1853 -0.8387
vn 0.1490 0.4103 -0.8997
vn -0.0208 -0.1390 -0.9901
vn -0.1110 -0.1360 -0.9845
vn -0.2794 0.8056 -0.5224
vn 0.0767 0.3021 -0.9502
vn 0.5051 -0.0053 -0.8630
vn 0.1815 0.0496 -0.9821
vn 0.4747 -0.1861 -0.8602
vn -0.0162 -0.5659 -0.8243
vn -0.0774 -0.6087 -0.7896
vn 0.4928 -0.2233 -0.8410
vn 0.7711 0.0853 0.6310
vn -0.5576 0.3090 -0.7704
vn -0.3352 -0.3965 0.8546
vn 0.3513 0.8954 0.2738
vn -0.4249 0.4525 0.7840
vn 0.3842 0.9169 0.1082
vn -0.2904 0.1230 0.9490
vn 0.1071 0.0385 0.9935
vn -0.0130 -0.5497 -0.8352
vn -0.2193 -0.6912 -0.6886
vn 0.1483 -0.3650 0.9191
vn 0.2098 -0.3435 0.9154
vn -0.2245 -0.7695 0.5979
vn 0.1484 -0.1880 0.9709
vn -0.2004 0.5082 -0.8376
vn 0.2016 0.0636 -0.9774
vn 0.2950 -0.2023 0.9339
vn 0.2598 -0.1071 0.9597
vn -0.2776 -0.8166 0.5061
vn 0.9173 -0.1392 -0.3730
vn 0.7964 0.1589 0.5835
vn 0.9326 0.1843 -0.3103
vn -0.9885 -0.0728 -0.1323
vn 0.1695 -0.2075 0.9635
vn 0.2104 0.0302 -0.9772
usemtl color
s off
f 72/103/99 75/104/99 104/105/99
f 76/106/100 91/107/100 72/108/100
f 76/106/101 84/109/101 91/107/101
f 76/106/102 108/110/102 84/109/102
f 91/107/103 64/111/103 75/112/103
f 64/111/104 105/113/104 75/112/104
f 68/114/105 73/115/105 71/116/105
f 78/117/106 79/118/106 69/119/106
f 79/118/107 92/120/107 106/121/107
f 96/122/108 78/117/108 69/119/108
f 92/120/109 93/123/109 106/121/109
f 92/124/110 81/125/110 84/109/110
f 91/107/111 81/125/111 80/126/111
f 90/127/112 94/128/112 58/129/112
f 82/130/113 67/131/113 94/132/113
f 82/130/114 83/133/114 67/131/114
f 82/130/115 53/134/115 83/133/115
f 82/130/116 97/135/116 53/134/116
f 55/136/117 56/137/117 54/138/117
f 80/126/118 56/137/118 64/111/118
f 58/139/119 85/140/119 57/141/119
f 82/142/120 60/143/120 59/144/120
f 52/145/121 88/146/121 96/147/121
f 88/146/122 98/148/122 96/147/122
f 70/149/123 88/146/123 52/145/123
f 54/138/124 80/126/124 90/127/124
f 61/150/125 65/151/125 92/120/125
f 93/152/126 92/124/126 84/109/126
f 85/153/127 94/132/127 67/131/127
f 95/154/128 85/153/128 109/155/128
f 109/155/129 85/153/129 67/131/129
f 96/122/130 97/156/130 78/117/130
f 97/135/131 98/157/131 53/134/131
f 59/158/132 97/135/132 82/130/132
f 78/117/133 59/159/133 61/150/133
f 70/149/134 99/160/134 100/161/134
f 100/161/135 53/162/135 98/148/135
f 88/146/136 100/161/136 98/148/136
f 110/163/137 102/164/137 101/165/137
f 102/164/138 103/166/138 101/165/138
f 63/167/139 77/168/139 103/169/139
f 70/170/140 52/171/140 69/172/140
f 71/116/141 101/173/141 68/114/141
f 76/174/142 71/175/142 73/176/142
f 104/105/143 105/177/143 112/178/143
f 79/118/144 107/179/144 69/119/144
f 107/180/145 108/181/145 76/174/145
f 87/182/146 76/174/146 73/176/146
f 107/179/147 87/183/147 69/119/147
f 109/155/148 62/184/148 110/185/148
f 110/185/149 112/186/149 95/154/149
f 101/165/150 74/187/150 110/163/150
f 54/138/151 111/188/151 55/136/151
f 95/154/152 111/189/152 89/190/152
f 72/108/153 91/107/153 75/112/153
f 72/103/154 71/175/154 76/174/154
f 105/113/155 64/111/155 56/137/155
f 68/114/156 77/168/156 70/149/156
f 63/167/157 99/160/157 77/168/157
f 77/168/158 68/114/158 103/169/158
f 52/145/159 96/147/159 69/191/159
f 78/117/160 61/150/160 79/118/160
f 61/150/161 92/120/161 79/118/161
f 90/127/162 65/192/162 94/128/162
f 65/192/163 80/126/163 81/125/163
f 64/111/164 91/107/164 80/126/164
f 81/125/165 92/124/165 65/192/165
f 65/151/166 61/150/166 66/193/166
f 94/194/167 60/143/167 82/142/167
f 89/190/168 58/195/168 57/196/168
f 61/150/169 59/159/169 66/193/169
f 62/184/170 109/155/170 63/197/170
f 90/127/171 89/198/171 54/138/171
f 111/188/172 54/138/172 89/198/172
f 89/198/173 90/127/173 58/129/173
f 57/196/174 95/154/174 89/190/174
f 54/138/175 56/137/175 80/126/175
f 84/109/176 81/125/176 91/107/176
f 66/199/177 60/200/177 94/128/177
f 66/199/178 94/128/178 65/192/178
f 94/201/179 85/140/179 58/139/179
f 60/202/180 66/193/180 59/159/180
f 85/203/181 95/204/181 57/205/181
f 63/197/182 109/155/182 83/133/182
f 83/133/183 109/155/183 67/131/183
f 78/117/184 97/156/184 59/159/184
f 97/156/185 96/122/185 98/206/185
f 70/149/186 77/168/186 99/160/186
f 100/161/187 83/207/187 53/162/187
f 70/149/188 100/161/188 88/146/188
f 110/185/189 62/184/189 102/208/189
f 62/184/190 63/197/190 102/208/190
f 102/209/191 63/167/191 103/169/191
f 101/173/192 103/169/192 68/114/192
f 71/210/193 86/211/193 74/212/193
f 55/136/194 105/113/194 56/137/194
f 106/121/195 108/213/195 107/179/195
f 93/123/196 108/213/196 106/121/196
f 79/118/197 106/121/197 107/179/197
f 93/152/198 84/109/198 108/110/198
f 87/182/199 107/180/199 76/174/199
f 109/155/200 110/185/200 95/154/200
f 95/154/201 112/186/201 111/189/201
f 110/163/202 74/187/202 104/105/202
f 110/163/203 104/105/203 112/178/203
f 55/136/204 112/214/204 105/113/204
f 104/105/205 71/175/205 72/103/205
f 74/212/206 86/211/206 104/215/206
f 83/207/207 99/160/207 63/167/207
f 101/165/208 71/175/208 74/187/208
f 75/104/209 105/177/209 104/105/209
f 112/214/210 55/136/210 111/188/210
f 69/191/211 87/216/211 73/115/211
f 73/115/212 68/114/212 69/191/212
f 68/114/213 70/149/213 69/191/213
f 65/192/214 90/127/214 80/126/214
f 104/105/215 86/217/215 71/175/215
f 83/207/216 100/161/216 99/160/216
