# Blender v3.3.1 OBJ File: '4Way_1.blend'
# www.blender.org
mtllib 4Way_1.mtl
o Nav_å¹³é¢.001
v -6.500000 0.000000 -1.500000
v -6.500000 0.000000 1.500000
v -5.500000 0.000000 -2.500000
v -5.500000 0.000000 -5.500000
v 1.500000 0.000000 -6.500000
v -1.500000 0.000000 -6.500000
v -1.500000 0.000000 -5.500000
v 1.500000 0.000000 -5.500000
v 1.500000 0.000000 -2.500000
v -1.500000 0.000000 -2.500000
v -1.500000 0.000000 1.500000
v 1.500000 0.000000 1.500000
v -1.500000 0.000000 -1.500000
v 1.500000 0.000000 -1.500000
v 2.500000 0.000000 -5.500000
v 2.500000 0.000000 -2.500000
v 5.500000 0.000000 -5.500000
v 5.500000 0.000000 -2.500000
v 2.500000 0.000000 -1.500000
v 5.500000 0.000000 -1.500000
v 2.500000 0.000000 1.500000
v 5.500000 0.000000 1.500000
v 6.500000 0.000000 -1.500000
v 6.500000 0.000000 1.500000
v 2.500000 0.000000 2.500000
v 5.500000 0.000000 2.500000
v 2.500000 0.000000 5.500000
v 5.500000 0.000000 5.500000
v 1.500000 0.000000 2.500000
v 1.500000 0.000000 5.500000
v -1.500000 0.000000 2.500000
v -1.500000 0.000000 5.500000
v -5.500000 0.000000 2.500000
v -5.500000 0.000000 5.500000
v 1.500000 0.000000 6.500000
v -1.500000 0.000000 6.500000
vt 1.000000 0.000000
vt 1.000000 0.000000
vt 1.000000 0.000000
vt 0.000000 0.000000
vt 1.000000 0.000000
vt 0.000000 0.000000
vt 0.000000 0.000000
vt 1.000000 0.000000
vt 0.000000 1.000000
vt 1.000000 1.000000
vt 1.000000 1.000000
vt 0.000000 0.000000
vt 0.000000 0.000000
vt 0.000000 0.000000
vt 0.000000 0.000000
vt 0.000000 0.000000
vt 0.000000 0.000000
vt 0.000000 0.000000
vt 0.000000 0.000000
vt 0.000000 0.000000
vt 0.000000 0.000000
vt 0.000000 0.000000
vt 0.000000 0.000000
vt 0.000000 0.000000
vt 0.000000 0.000000
vt 0.000000 0.000000
vt 0.000000 0.000000
vt 0.000000 0.000000
vt 0.000000 0.000000
vt 0.000000 0.000000
vt 1.000000 0.000000
vt 0.000000 0.000000
vt 1.000000 0.000000
vt 0.000000 0.000000
vt 0.000000 0.000000
vt 0.000000 0.000000
vn 0.0000 1.0000 0.0000
usemtl None
s off
f 7/1/1 3/2/1 10/3/1
f 8/4/1 6/5/1 7/1/1
f 9/6/1 7/1/1 10/3/1
f 14/7/1 10/3/1 13/8/1
f 13/8/1 12/9/1 14/7/1
f 13/8/1 2/10/1 11/11/1
f 9/6/1 15/12/1 8/4/1
f 16/13/1 17/14/1 15/12/1
f 16/13/1 20/15/1 18/16/1
f 19/17/1 22/18/1 20/15/1
f 22/18/1 23/19/1 20/15/1
f 21/20/1 26/21/1 22/18/1
f 25/22/1 28/23/1 26/21/1
f 25/22/1 30/24/1 27/25/1
f 29/26/1 32/27/1 30/24/1
f 31/28/1 34/29/1 32/27/1
f 32/27/1 35/30/1 30/24/1
f 7/1/1 4/31/1 3/2/1
f 8/4/1 5/32/1 6/5/1
f 9/6/1 8/4/1 7/1/1
f 14/7/1 9/6/1 10/3/1
f 13/8/1 11/11/1 12/9/1
f 13/8/1 1/33/1 2/10/1
f 9/6/1 16/13/1 15/12/1
f 16/13/1 18/16/1 17/14/1
f 16/13/1 19/17/1 20/15/1
f 19/17/1 21/20/1 22/18/1
f 22/18/1 24/34/1 23/19/1
f 21/20/1 25/22/1 26/21/1
f 25/22/1 27/25/1 28/23/1
f 25/22/1 29/26/1 30/24/1
f 29/26/1 31/28/1 32/27/1
f 31/28/1 33/35/1 34/29/1
f 32/27/1 36/36/1 35/30/1
