# Blender v3.3.1 OBJ File: 'terrain.blend'
# www.blender.org
mtllib terrain.mtl
o terrain_立方体
v 38.691570 -42.340466 1.971083
v 42.497425 -47.016048 -20.993902
v 27.366953 -47.476185 -36.918789
v 44.741302 -25.240875 -39.759991
v 45.655754 -26.255539 19.636305
v 46.038254 0.000000 66.543678
v 54.901814 0.000000 54.500114
v -44.698387 -41.424599 -13.627591
v -52.485249 -21.538967 -27.054834
v -41.912117 -16.525150 -48.651947
v -48.959038 0.000000 -59.239616
v -35.164127 -27.525303 45.478222
v 1.031079 -25.527626 51.030029
v -56.463318 0.000000 62.576736
v -12.810667 -55.275867 3.935237
v 16.229368 -54.236271 -8.956911
v 55.152073 -27.681225 -19.059412
v 23.276499 -14.864824 60.210495
v -60.743492 -23.579937 16.323109
v -61.502445 0.000000 -45.524956
v -3.548984 -52.083851 -30.455217
v 15.916082 -27.842045 -55.325924
v 1.246240 0.000000 -89.405228
v -64.628265 0.000000 2.495519
v 61.116692 0.000000 15.328462
v 16.749966 0.000000 77.736961
v 40.974243 -36.917660 -37.135181
v 39.469620 -15.872368 52.649853
v 44.932896 -19.470242 31.701572
v 34.640594 -24.643433 42.380169
v -41.098190 -29.201984 -34.861576
v -46.445774 -24.990602 37.691170
v 51.496826 0.000000 -55.313271
v 71.108376 0.000000 -28.130236
v -6.279262 -36.386311 41.830070
v -72.336586 0.000000 40.339073
v -35.552017 -50.222095 6.242540
v -49.735847 -37.759541 12.500754
v -20.617102 -54.181782 -11.394635
v -19.840984 -35.173824 -40.773254
v -0.801550 -38.790894 -49.688385
vt 0.239348 0.222140
vt 0.240984 0.225926
vt 0.239500 0.224878
vt 0.237343 0.225007
vt 0.234332 0.226136
vt 0.235318 0.224898
vt 0.250965 0.754148
vt 0.249122 0.753847
vt 0.252133 0.752717
vt 0.236175 0.226438
vt 0.235201 0.227847
vt 0.234407 0.226575
vt 0.248913 0.740526
vt 0.250590 0.739603
vt 0.250787 0.740890
vt 0.235800 0.211893
vt 0.240358 0.212196
vt 0.237019 0.213324
vt 0.251809 0.741035
vt 0.748047 0.485795
vt 0.747551 0.484473
vt 0.748297 0.484443
vt 0.747670 0.482554
vt 0.746632 0.483969
vt 0.747912 0.477470
vt 0.747786 0.475028
vt 0.750286 0.474694
vt 0.747315 0.476493
vt 0.751632 0.477757
vt 0.753028 0.479057
vt 0.751802 0.479580
vt 0.237343 0.222998
vt 0.235568 0.223546
vt 0.234940 0.221656
vt 0.234123 0.212815
vt 0.235997 0.213180
vt 0.234748 0.213873
vt 0.249847 0.741841
vt 0.249538 0.741584
vt 0.752381 0.476573
vt 0.753087 0.477717
vt 0.739671 0.485832
vt 0.740647 0.485838
vt 0.740380 0.487172
vt 0.242708 0.752651
vt 0.241732 0.752646
vt 0.242708 0.749444
vt 0.226942 0.224935
vt 0.225531 0.223725
vt 0.227918 0.221734
vt 0.751033 0.476893
vt 0.750757 0.479058
vt 0.749383 0.477919
vt 0.243722 0.753370
vt 0.242708 0.752873
vt 0.243722 0.749444
vt 0.251409 0.747085
vt 0.252133 0.750709
vt 0.249730 0.749367
vt 0.255774 0.748353
vt 0.255687 0.750697
vt 0.254138 0.749850
vt 0.255774 0.753637
vt 0.238753 0.220716
vt 0.240984 0.220642
vt 0.255148 0.739906
vt 0.254049 0.741063
vt 0.746758 0.485299
vt 0.234516 0.214874
vt 0.235057 0.214131
vt 0.749748 0.474221
vt 0.239709 0.225859
vt 0.238782 0.225425
vt 0.246310 0.749444
vt 0.246310 0.750733
vt 0.245633 0.750271
vt 0.752229 0.485776
vt 0.751511 0.486322
vt 0.750889 0.485026
vt 0.751988 0.474249
vt 0.240426 0.219375
vt 0.238390 0.220566
vt 0.747883 0.478882
vt 0.748934 0.479718
vt 0.250358 0.751257
vt 0.250108 0.752608
vt 0.249306 0.742584
vt 0.248478 0.741329
vt 0.253543 0.748426
vt 0.255216 0.747085
vt 0.750073 0.483877
vt 0.751136 0.483404
vt 0.238406 0.222507
vt 0.254290 0.752589
vt 0.253196 0.750217
vt 0.244715 0.750718
vt 0.243722 0.750051
vt 0.244715 0.749444
vt 0.739300 0.487880
vt 0.746533 0.482150
vt 0.233804 0.221253
vt 0.236619 0.219375
vt 0.249375 0.743307
vt 0.751120 0.481463
vt 0.746417 0.486087
vt 0.747062 0.487033
vt 0.245633 0.749444
vt 0.245633 0.750721
vt 0.244715 0.750446
vt 0.750731 0.480272
vt 0.246982 0.747991
vt 0.243568 0.749444
vt 0.240912 0.747045
vt 0.253180 0.748276
vt 0.246463 0.739603
vt 0.248088 0.740619
vt 0.248478 0.741445
vt 0.248390 0.743868
vt 0.248478 0.746591
vt 0.225891 0.213087
vt 0.227105 0.211941
vt 0.225908 0.215448
vt 0.241894 0.739651
vt 0.240698 0.743158
vt 0.240321 0.746075
vt 0.231673 0.211893
vt 0.233600 0.216157
vt 0.232192 0.220280
vt 0.226122 0.219334
vn -0.8405 -0.5096 -0.1840
vn 0.8738 -0.4283 0.2302
vn 0.8586 -0.4732 0.1974
vn 0.8132 -0.5675 0.1290
vn 0.2595 -0.6867 0.6790
vn -0.1507 -0.6688 0.7280
vn 0.0834 -0.7444 0.6625
vn 0.8140 -0.3643 -0.4523
vn 0.3797 -0.5052 -0.7750
vn 0.2466 -0.8784 0.4094
vn 0.6446 -0.6745 0.3600
vn -0.3614 -0.7785 -0.5132
vn 0.4337 -0.5540 -0.7106
vn 0.2682 -0.6950 0.6671
vn 0.2181 -0.7904 0.5725
vn -0.4471 -0.8758 -0.1820
vn -0.3998 -0.7263 -0.5591
vn -0.4228 -0.6373 -0.6443
vn -0.3466 -0.6822 -0.6437
vn -0.1476 -0.8748 0.4615
vn -0.0061 -0.9955 -0.0941
vn 0.0274 -0.9960 -0.0851
vn -0.4083 -0.6095 -0.6796
vn 0.4562 -0.5828 -0.6725
vn -0.9440 -0.2683 -0.1923
vn -0.9780 -0.1985 -0.0637
vn -0.6245 -0.6865 0.3725
vn 0.8424 -0.4466 0.3016
vn -0.0928 -0.5762 0.8120
vn 0.5314 -0.6947 -0.4848
vn 0.4709 -0.3353 -0.8160
vn 0.7922 -0.4809 -0.3756
vn 0.6529 -0.6995 0.2904
vn 0.1637 -0.8173 0.5525
vn 0.1937 -0.7068 0.6804
vn -0.6912 -0.5519 -0.4665
vn -0.3672 -0.6955 -0.6177
vn -0.6896 -0.5709 -0.4455
vn -0.0873 -0.6091 0.7883
vn -0.5045 -0.7023 0.5022
vn 0.3590 -0.9011 0.2430
vn 0.1944 -0.9683 -0.1567
vn 0.7167 -0.5526 -0.4256
vn 0.7023 -0.5001 -0.5066
vn 0.6685 -0.6840 0.2918
vn -0.6035 -0.6709 0.4308
vn -0.6658 -0.7458 -0.0237
vn -0.8969 -0.4275 -0.1130
vn -0.6664 -0.6263 0.4045
vn -0.7999 -0.5727 -0.1792
vn -0.3652 -0.7787 -0.5102
vn -0.6163 -0.6452 -0.4515
vn -0.4578 -0.7409 -0.4915
vn 0.1530 -0.6269 -0.7639
vn 0.2325 -0.7018 -0.6734
vn -0.1979 -0.8476 0.4923
vn -0.2130 -0.9763 0.0388
vn 0.2376 -0.8851 0.4002
vn 0.1048 -0.9754 -0.1941
vn 0.6996 -0.6041 0.3816
vn -0.4723 -0.7609 0.4449
vn 0.6130 -0.6486 0.4511
vn 0.7881 -0.5770 0.2147
vn -0.5912 -0.5985 -0.5407
vn 0.0039 -0.8229 -0.5682
vn 0.2331 -0.8590 0.4559
vn 0.0000 1.0000 0.0000
vn -0.4779 -0.7568 0.4460
vn 0.8000 -0.5480 0.2442
usemtl plateau
s off
f 19/1/1 20/2/1 9/3/1
f 34/4/2 5/5/2 17/6/2
f 25/7/3 5/8/3 34/9/3
f 25/10/4 7/11/4 29/12/4
f 6/13/5 26/14/5 18/15/5
f 26/16/6 14/17/6 13/18/6
f 26/14/7 13/19/7 18/15/7
f 17/20/8 27/21/8 4/22/8
f 22/23/9 27/21/9 3/24/9
f 1/25/10 30/26/10 35/27/10
f 1/25/11 5/28/11 30/26/11
f 39/29/12 31/30/12 40/31/12
f 33/32/13 4/33/13 22/34/13
f 6/35/14 18/36/14 28/37/14
f 18/15/15 30/38/15 28/39/15
f 37/40/16 8/41/16 39/29/16
f 40/42/17 41/43/17 21/44/17
f 41/45/18 40/46/18 23/47/18
f 40/48/19 10/49/19 23/50/19
f 35/27/20 37/40/20 15/51/20
f 15/51/21 21/52/21 16/53/21
f 15/51/22 39/29/22 21/52/22
f 10/54/23 11/55/23 23/56/23
f 23/57/24 33/58/24 22/59/24
f 36/60/25 24/61/25 19/62/25
f 19/62/26 24/61/26 20/63/26
f 19/1/27 32/64/27 36/65/27
f 5/5/28 25/10/28 29/12/28
f 13/19/29 14/66/29 12/67/29
f 2/68/30 3/24/30 27/21/30
f 22/23/31 4/22/31 27/21/31
f 17/20/32 2/68/32 27/21/32
f 29/69/33 28/37/33 30/70/33
f 18/36/34 13/18/34 30/70/34
f 13/71/35 35/27/35 30/26/35
f 9/3/36 10/72/36 31/73/36
f 10/74/37 40/75/37 31/76/37
f 9/77/38 31/78/38 8/79/38
f 12/80/39 35/27/39 13/71/39
f 14/81/40 32/64/40 12/82/40
f 1/25/41 16/53/41 2/83/41
f 16/53/42 3/84/42 2/83/42
f 4/85/43 34/9/43 17/86/43
f 4/85/44 33/58/44 34/9/44
f 28/39/45 29/87/45 7/88/45
f 36/60/46 32/89/46 14/90/46
f 8/79/47 37/91/47 38/92/47
f 8/79/48 38/92/48 9/77/48
f 38/93/49 32/64/49 19/1/49
f 9/94/50 38/95/50 19/62/50
f 39/29/51 8/41/51 31/30/51
f 20/96/52 10/97/52 9/98/52
f 39/99/53 40/42/53 21/44/53
f 3/24/54 41/100/54 22/23/54
f 22/34/55 41/101/55 23/102/55
f 35/27/56 12/80/56 37/40/56
f 15/51/57 37/40/57 39/29/57
f 35/27/58 15/51/58 1/25/58
f 16/53/59 21/52/59 3/84/59
f 5/103/60 29/87/60 30/38/60
f 12/104/61 38/92/61 37/91/61
f 28/39/62 7/88/62 6/13/62
f 1/105/63 17/20/63 5/106/63
f 10/107/64 20/108/64 11/109/64
f 3/84/65 21/52/65 41/110/65
f 16/53/66 1/25/66 15/51/66
f 33/111/67 23/112/67 11/113/67
f 12/114/68 32/89/68 38/95/68
f 1/105/69 2/68/69 17/20/69
f 26/115/67 6/116/67 7/117/67
f 25/118/67 34/119/67 33/111/67
f 26/115/67 7/117/67 25/118/67
f 36/120/67 14/121/67 24/122/67
f 14/123/67 26/115/67 24/124/67
f 11/113/67 20/125/67 24/124/67
f 26/126/67 25/127/67 24/122/67
f 25/118/67 33/111/67 24/124/67
f 24/122/67 33/128/67 11/129/67
