# Blender v3.3.1 OBJ File: 'zombie1.blend'
# www.blender.org
mtllib zombie1.mtl
o head_立方体.001
v 0.250000 1.500000 -0.250000
v 0.250000 2.000000 -0.250000
v 0.250000 1.500000 0.250000
v 0.250000 2.000000 0.250000
v -0.250000 1.500000 -0.250000
v -0.250000 2.000000 -0.250000
v -0.250000 1.500000 0.250000
v -0.250000 2.000000 0.250000
vt 0.333333 1.000000
vt 0.000000 0.666667
vt 0.333333 0.666667
vt 1.000000 0.333333
vt 0.666667 0.000000
vt 1.000000 0.000000
vt 0.666667 0.666667
vt 0.333333 0.333333
vt 0.666667 0.333333
vt 0.333333 0.333333
vt 0.666667 0.000000
vt 0.666667 0.333333
vt 0.333333 0.000000
vt 0.000000 0.333333
vt 0.000000 0.000000
vt 0.333333 0.333333
vt 0.000000 0.666667
vt 0.000000 0.333333
vt -0.000000 1.000000
vt 0.666666 0.333333
vt 0.333333 0.666667
vt 0.333333 0.000000
vt 0.333333 0.666667
vn 1.0000 0.0000 0.0000
vn 0.0000 0.0000 1.0000
vn -1.0000 0.0000 0.0000
vn 0.0000 0.0000 -1.0000
vn 0.0000 -1.0000 0.0000
vn 0.0000 1.0000 0.0000
usemtl head
s off
f 2/1/1 3/2/1 1/3/1
f 4/4/2 7/5/2 3/6/2
f 8/7/3 5/8/3 7/9/3
f 6/10/4 1/11/4 5/12/4
f 7/13/5 1/14/5 3/15/5
f 4/16/6 6/17/6 8/18/6
f 2/1/1 4/19/1 3/2/1
f 4/4/2 8/20/2 7/5/2
f 8/7/3 6/21/3 5/8/3
f 6/10/4 2/22/4 1/11/4
f 7/13/5 5/8/5 1/14/5
f 4/16/6 2/23/6 6/17/6
o body_立方体.002
v 0.250000 0.750000 -0.125000
v 0.250000 1.500000 -0.125000
v 0.250000 0.750000 0.125000
v 0.250000 1.500000 0.125000
v -0.250000 0.750000 -0.125000
v -0.250000 1.500000 -0.125000
v -0.250000 0.750000 0.125000
v -0.250000 1.500000 0.125000
vt 0.166667 1.000000
vt 0.000000 0.500000
vt 0.166667 0.500000
vt 0.333333 0.500000
vt 0.000000 0.000000
vt 0.333333 0.000000
vt 0.833333 0.500000
vt 0.666667 0.000000
vt 0.833333 0.000000
vt 0.666667 0.500000
vt 0.333333 0.000000
vt 0.500000 0.833333
vt 0.333333 0.500000
vt 0.500000 0.500000
vt 0.333333 0.833333
vt 0.166667 0.500000
vt 0.333333 0.500000
vt 0.000000 1.000000
vt 0.000000 0.500000
vt 0.333333 0.500000
vt 0.333333 0.833333
vt 0.166667 0.833333
vn 1.0000 0.0000 0.0000
vn 0.0000 0.0000 1.0000
vn -1.0000 0.0000 0.0000
vn 0.0000 0.0000 -1.0000
vn 0.0000 -1.0000 0.0000
vn 0.0000 1.0000 0.0000
usemtl body
s off
f 10/24/7 11/25/7 9/26/7
f 12/27/8 15/28/8 11/29/8
f 16/30/9 13/31/9 15/32/9
f 14/33/10 9/34/10 13/31/10
f 15/35/11 9/36/11 11/37/11
f 12/38/12 14/39/12 16/40/12
f 10/24/7 12/41/7 11/25/7
f 12/27/8 16/42/8 15/28/8
f 16/30/9 14/33/9 13/31/9
f 14/33/10 10/43/10 9/34/10
f 15/35/11 13/44/11 9/36/11
f 12/38/12 10/45/12 14/39/12
o armL_立方体.003
v 0.500000 1.250000 -0.125000
v 0.500000 1.500000 -0.125000
v 0.500000 1.250000 0.625000
v 0.500000 1.500000 0.625000
v 0.250000 1.250000 -0.125000
v 0.250000 1.500000 -0.125000
v 0.250000 1.250000 0.625000
v 0.250000 1.500000 0.625000
vt 0.750000 0.750000
vt 1.000000 0.000000
vt 1.000000 0.750000
vt 0.500000 1.000000
vt 0.250000 0.750000
vt 0.500000 0.750000
vt 0.250000 0.000000
vt -0.000000 0.750000
vt 0.000000 -0.000000
vt 0.250000 1.000000
vt 0.000000 0.750000
vt 0.250000 0.750000
vt 0.750000 0.000000
vt 0.500000 0.750000
vt 0.500000 -0.000000
vt 0.500000 0.000000
vt 0.250000 0.750000
vt 0.750000 0.000000
vt 0.250000 1.000000
vt 0.000000 1.000000
vt 0.750000 0.750000
vt 0.500000 0.750000
vn 1.0000 0.0000 0.0000
vn 0.0000 0.0000 1.0000
vn -1.0000 0.0000 0.0000
vn 0.0000 0.0000 -1.0000
vn 0.0000 -1.0000 0.0000
vn 0.0000 1.0000 0.0000
usemtl arm
s off
f 18/46/13 19/47/13 17/48/13
f 20/49/14 23/50/14 19/51/14
f 24/52/15 21/53/15 23/54/15
f 22/55/16 17/56/16 21/57/16
f 23/58/17 17/59/17 19/60/17
f 20/61/18 22/62/18 24/52/18
f 18/46/13 20/63/13 19/47/13
f 20/49/14 24/64/14 23/50/14
f 24/52/15 22/62/15 21/53/15
f 22/55/16 18/65/16 17/56/16
f 23/58/17 21/66/17 17/59/17
f 20/61/18 18/67/18 22/62/18
o armR_立方体.004
v -0.250000 1.250000 -0.125000
v -0.250000 1.500000 -0.125000
v -0.250000 1.250000 0.625000
v -0.250000 1.500000 0.625000
v -0.500000 1.250000 -0.125000
v -0.500000 1.500000 -0.125000
v -0.500000 1.250000 0.625000
v -0.500000 1.500000 0.625000
vt 0.000000 0.750000
vt 0.250000 0.000000
vt 0.250000 0.750000
vt 0.500000 1.000000
vt 0.250000 0.750000
vt 0.500000 0.750000
vt 1.000000 0.000000
vt 0.750000 0.750000
vt 0.750000 0.000000
vt 0.250000 1.000000
vt 0.000000 0.750000
vt 0.250000 0.750000
vt 0.500000 0.750000
vt 0.500000 -0.000000
vt 0.500000 0.000000
vt 0.250000 0.750000
vt 0.250000 -0.000000
vt 0.000000 0.000000
vt 0.250000 1.000000
vt 1.000000 0.750000
vt 0.000000 1.000000
vt 0.500000 0.750000
vn 1.0000 0.0000 0.0000
vn 0.0000 0.0000 1.0000
vn -1.0000 0.0000 0.0000
vn 0.0000 0.0000 -1.0000
vn 0.0000 -1.0000 0.0000
vn 0.0000 1.0000 0.0000
usemtl arm
s off
f 26/68/19 27/69/19 25/70/19
f 28/71/20 31/72/20 27/73/20
f 32/74/21 29/75/21 31/76/21
f 30/77/22 25/78/22 29/79/22
f 31/76/23 25/80/23 27/81/23
f 28/82/24 30/83/24 32/84/24
f 26/68/19 28/85/19 27/69/19
f 28/71/20 32/86/20 31/72/20
f 32/74/21 30/87/21 29/75/21
f 30/77/22 26/88/22 25/78/22
f 31/76/23 29/75/23 25/80/23
f 28/82/24 26/89/24 30/83/24
o legR_立方体.005
v 0.000000 0.000000 -0.125000
v 0.000000 0.750000 -0.125000
v 0.000000 0.000000 0.125000
v 0.000000 0.750000 0.125000
v -0.250000 0.000000 -0.125000
v -0.250000 0.750000 -0.125000
v -0.250000 0.000000 0.125000
v -0.250000 0.750000 0.125000
vt 1.000000 0.750000
vt 0.750000 0.000000
vt 1.000000 0.000000
vt 0.250000 0.750000
vt 0.000000 0.000000
vt 0.250000 0.000000
vt 0.500000 0.750000
vt 0.250000 0.000000
vt 0.500000 0.000000
vt 0.750000 0.750000
vt 0.500000 0.000000
vt 0.750000 0.000000
vt 0.500000 0.750000
vt 0.250000 1.000000
vt 0.250000 0.750000
vt 0.000000 1.000000
vt 0.000000 0.750000
vt 0.750000 0.750000
vt 0.250000 0.750000
vt 0.500000 0.750000
vt 0.500000 1.000000
vt 0.250000 1.000000
vn 1.0000 0.0000 0.0000
vn 0.0000 0.0000 1.0000
vn -1.0000 0.0000 0.0000
vn 0.0000 0.0000 -1.0000
vn 0.0000 -1.0000 0.0000
vn 0.0000 1.0000 0.0000
usemtl leg
s off
f 34/90/25 35/91/25 33/92/25
f 36/93/26 39/94/26 35/95/26
f 40/96/27 37/97/27 39/98/27
f 38/99/28 33/100/28 37/101/28
f 39/102/29 33/103/29 35/104/29
f 36/93/30 38/105/30 40/106/30
f 34/90/25 36/107/25 35/91/25
f 36/93/26 40/106/26 39/94/26
f 40/96/27 38/108/27 37/97/27
f 38/99/28 34/109/28 33/100/28
f 39/102/29 37/110/29 33/103/29
f 36/93/30 34/111/30 38/105/30
o legL_立方体.006
v 0.250000 0.000000 -0.125000
v 0.250000 0.750000 -0.125000
v 0.250000 0.000000 0.125000
v 0.250000 0.750000 0.125000
v 0.000000 0.000000 -0.125000
v 0.000000 0.750000 -0.125000
v 0.000000 0.000000 0.125000
v 0.000000 0.750000 0.125000
vt 1.000000 0.750000
vt 0.750000 0.000000
vt 1.000000 0.000000
vt 0.250000 0.750000
vt 0.000000 0.000000
vt 0.250000 0.000000
vt 0.500000 0.750000
vt 0.250000 0.000000
vt 0.500000 0.000000
vt 0.750000 0.750000
vt 0.500000 0.000000
vt 0.750000 0.000000
vt 0.500000 0.750000
vt 0.250000 1.000000
vt 0.250000 0.750000
vt 0.000000 1.000000
vt 0.000000 0.750000
vt 0.750000 0.750000
vt 0.250000 0.750000
vt 0.500000 0.750000
vt 0.500000 1.000000
vt 0.250000 1.000000
vn 1.0000 0.0000 0.0000
vn 0.0000 0.0000 1.0000
vn -1.0000 0.0000 0.0000
vn 0.0000 0.0000 -1.0000
vn 0.0000 -1.0000 0.0000
vn 0.0000 1.0000 0.0000
usemtl leg
s off
f 42/112/31 43/113/31 41/114/31
f 44/115/32 47/116/32 43/117/32
f 48/118/33 45/119/33 47/120/33
f 46/121/34 41/122/34 45/123/34
f 47/124/35 41/125/35 43/126/35
f 44/115/36 46/127/36 48/128/36
f 42/112/31 44/129/31 43/113/31
f 44/115/32 48/128/32 47/116/32
f 48/118/33 46/130/33 45/119/33
f 46/121/34 42/131/34 41/122/34
f 47/124/35 45/132/35 41/125/35
f 44/115/36 42/133/36 46/127/36
