# Blender v3.3.1 OBJ File: 'navMesh.blend'
# www.blender.org
mtllib navMesh.mtl
o å¹³é¢
v 1.500000 0.000000 -1.500000
v -1.500000 0.000000 -1.500000
v 1.500000 0.000000 1.500000
v -1.500000 0.000000 1.500000
v 1.500000 0.000000 4.500000
v -1.500000 0.000000 4.500000
v 1.500000 0.000000 8.500000
v -1.500000 0.000000 8.500000
v 1.500000 0.000000 11.500000
v -1.500000 0.000000 11.500000
v -7.500000 0.000000 8.500000
v -7.500000 0.000000 11.500000
v 7.500000 0.000000 8.500000
v 7.500000 0.000000 11.500000
v -4.500000 0.000000 8.500000
v -4.500000 0.000000 11.500000
v 4.500000 0.000000 11.500000
v 4.500000 0.000000 8.500000
v 1.500000 0.000000 14.499999
v -1.500000 0.000000 14.499999
v -7.500000 0.000000 14.499999
v 7.500000 0.000000 14.499999
v -4.500000 0.000000 14.499999
v 4.500000 0.000000 14.499999
v 1.500000 0.000000 17.499998
v -1.500000 0.000000 17.499998
v -7.500000 0.000000 17.499998
v 7.500000 0.000000 17.499998
v -4.500000 0.000000 17.499998
v 4.500000 0.000000 17.499998
v 1.500000 0.000000 20.500000
v -1.500000 0.000000 20.500000
v -7.500000 0.000000 20.500000
v 7.500000 0.000000 20.500000
v -4.500000 0.000000 20.500000
v 4.500000 0.000000 20.500000
v 1.500000 0.000000 23.499998
v -1.500000 0.000000 23.499998
v -7.500000 0.000000 23.499998
v 7.500000 0.000000 23.499998
v -4.500000 0.000000 23.499998
v 4.500000 0.000000 23.499998
v 1.500000 0.000000 27.500000
v -1.500000 0.000000 27.500000
v 1.500000 0.000000 30.500000
v -1.500000 0.000000 30.500000
v 1.500000 0.000000 33.500000
v -1.500000 0.000000 33.500000
v 4.500000 0.000000 30.500000
v 4.500000 0.000000 33.500000
v 7.500000 0.000000 30.500000
v 7.500000 0.000000 33.500000
v 8.500000 0.000000 30.500000
v 8.500000 0.000000 33.500000
v 23.500000 0.000000 30.500000
v 23.500000 0.000000 33.500000
v 11.500000 0.000000 33.500000
v 14.500000 0.000000 33.500000
v 17.500000 0.000000 33.500000
v 20.500000 0.000000 33.500000
v 20.500000 0.000000 30.500000
v 17.500000 0.000000 30.500000
v 14.500000 0.000000 30.500000
v 11.500000 0.000000 30.500000
v 8.500000 0.000000 27.500000
v 23.500000 0.000000 27.500000
v 20.500000 0.000000 27.500000
v 17.500000 0.000000 27.500000
v 14.500000 0.000000 27.500000
v 11.500000 0.000000 27.500000
v 8.500000 0.000000 24.499998
v 23.500000 0.000000 24.499998
v 20.500000 0.000000 24.499998
v 17.500000 0.000000 24.499998
v 14.500000 0.000000 24.499998
v 11.500000 0.000000 24.499998
v 8.500000 0.000000 36.500000
v 23.500000 0.000000 36.500000
v 11.500000 0.000000 36.500000
v 14.500000 0.000000 36.500000
v 17.500000 0.000000 36.500000
v 20.500000 0.000000 36.500000
v 8.500000 0.000000 39.500000
v 23.500000 0.000000 39.500000
v 11.500000 0.000000 39.500000
v 14.500000 0.000000 39.500000
v 17.500000 0.000000 39.500000
v 20.500000 0.000000 39.500000
vt 1.000000 0.000000
vt 0.000000 1.000000
vt 0.000000 0.000000
vt 1.000000 1.000000
vt 0.000000 1.000000
vt 1.000000 1.000000
vt 0.000000 1.000000
vt 1.000000 1.000000
vt 0.000000 1.000000
vt 1.000000 1.000000
vt 1.000000 1.000000
vt 1.000000 1.000000
vt 0.000000 1.000000
vt 0.000000 1.000000
vt 0.000000 1.000000
vt 1.000000 1.000000
vt 1.000000 1.000000
vt 0.000000 1.000000
vt 0.000000 1.000000
vt 0.000000 1.000000
vt 1.000000 1.000000
vt 0.000000 1.000000
vt 1.000000 1.000000
vt 1.000000 1.000000
vt 1.000000 1.000000
vt 0.000000 1.000000
vt 0.000000 1.000000
vt 0.000000 1.000000
vt 1.000000 1.000000
vt 1.000000 1.000000
vt 1.000000 1.000000
vt 0.000000 1.000000
vt 0.000000 1.000000
vt 0.000000 1.000000
vt 1.000000 1.000000
vt 1.000000 1.000000
vt 1.000000 1.000000
vt 0.000000 1.000000
vt 0.000000 1.000000
vt 0.000000 1.000000
vt 0.000000 1.000000
vt 1.000000 1.000000
vt 0.000000 1.000000
vt 1.000000 1.000000
vt 0.000000 1.000000
vt 0.000000 1.000000
vt 0.000000 1.000000
vt 0.000000 1.000000
vt 0.000000 1.000000
vt 0.000000 1.000000
vt 0.000000 1.000000
vt 0.000000 1.000000
vt 0.000000 1.000000
vt 0.000000 1.000000
vt 0.000000 1.000000
vt 0.000000 1.000000
vt 0.000000 1.000000
vt 0.000000 1.000000
vt 0.000000 1.000000
vt 0.000000 1.000000
vt 0.000000 1.000000
vt 0.000000 1.000000
vt 0.000000 1.000000
vt 0.000000 1.000000
vt 0.000000 1.000000
vt 0.000000 1.000000
vt 0.000000 1.000000
vt 0.000000 1.000000
vt 0.000000 1.000000
vt 0.000000 1.000000
vt 0.000000 1.000000
vt 0.000000 1.000000
vt 0.000000 1.000000
vt 0.000000 1.000000
vt 0.000000 1.000000
vt 0.000000 1.000000
vt 0.000000 1.000000
vt 0.000000 1.000000
vt 0.000000 1.000000
vt 0.000000 1.000000
vt 0.000000 1.000000
vt 0.000000 1.000000
vt 0.000000 1.000000
vt 1.000000 1.000000
vt 1.000000 1.000000
vt 1.000000 1.000000
vt 0.000000 1.000000
vt 0.000000 1.000000
vn 0.0000 1.0000 0.0000
usemtl None
s off
f 2/1/1 3/2/1 1/3/1
f 4/4/1 5/5/1 3/2/1
f 6/6/1 7/7/1 5/5/1
f 8/8/1 9/9/1 7/7/1
f 15/10/1 12/11/1 16/12/1
f 17/13/1 13/14/1 18/15/1
f 8/8/1 16/12/1 10/16/1
f 9/9/1 18/15/1 7/7/1
f 9/9/1 20/17/1 19/18/1
f 17/13/1 22/19/1 14/20/1
f 10/16/1 23/21/1 20/17/1
f 9/9/1 24/22/1 17/13/1
f 12/11/1 23/21/1 16/12/1
f 21/23/1 29/24/1 23/21/1
f 23/21/1 26/25/1 20/17/1
f 19/18/1 30/26/1 24/22/1
f 24/22/1 28/27/1 22/19/1
f 20/17/1 25/28/1 19/18/1
f 27/29/1 35/30/1 29/24/1
f 29/24/1 32/31/1 26/25/1
f 30/26/1 31/32/1 36/33/1
f 30/26/1 34/34/1 28/27/1
f 26/25/1 31/32/1 25/28/1
f 33/35/1 41/36/1 35/30/1
f 35/30/1 38/37/1 32/31/1
f 31/32/1 42/38/1 36/33/1
f 36/33/1 40/39/1 34/34/1
f 32/31/1 37/40/1 31/32/1
f 38/37/1 43/41/1 37/40/1
f 44/42/1 45/43/1 43/41/1
f 46/44/1 47/45/1 45/43/1
f 47/45/1 49/46/1 45/43/1
f 50/47/1 51/48/1 49/46/1
f 52/49/1 53/50/1 51/48/1
f 60/51/1 55/52/1 61/53/1
f 54/54/1 64/55/1 53/50/1
f 57/56/1 63/57/1 64/55/1
f 58/58/1 62/59/1 63/57/1
f 59/60/1 61/53/1 62/59/1
f 62/59/1 69/61/1 63/57/1
f 55/52/1 67/62/1 61/53/1
f 64/55/1 69/61/1 70/63/1
f 61/53/1 68/64/1 62/59/1
f 64/55/1 65/65/1 53/50/1
f 66/66/1 73/67/1 67/62/1
f 69/61/1 76/68/1 70/63/1
f 67/62/1 74/69/1 68/64/1
f 70/63/1 71/70/1 65/65/1
f 68/64/1 75/71/1 69/61/1
f 58/58/1 81/72/1 59/60/1
f 54/54/1 79/73/1 57/56/1
f 60/51/1 78/74/1 56/75/1
f 60/51/1 81/72/1 82/76/1
f 57/56/1 80/77/1 58/58/1
f 77/78/1 85/79/1 79/73/1
f 81/72/1 88/80/1 82/76/1
f 79/73/1 86/81/1 80/77/1
f 82/76/1 84/82/1 78/74/1
f 80/77/1 87/83/1 81/72/1
f 2/1/1 4/4/1 3/2/1
f 4/4/1 6/6/1 5/5/1
f 6/6/1 8/8/1 7/7/1
f 8/8/1 10/16/1 9/9/1
f 15/10/1 11/84/1 12/11/1
f 17/13/1 14/20/1 13/14/1
f 8/8/1 15/10/1 16/12/1
f 9/9/1 17/13/1 18/15/1
f 9/9/1 10/16/1 20/17/1
f 17/13/1 24/22/1 22/19/1
f 10/16/1 16/12/1 23/21/1
f 9/9/1 19/18/1 24/22/1
f 12/11/1 21/23/1 23/21/1
f 21/23/1 27/29/1 29/24/1
f 23/21/1 29/24/1 26/25/1
f 19/18/1 25/28/1 30/26/1
f 24/22/1 30/26/1 28/27/1
f 20/17/1 26/25/1 25/28/1
f 27/29/1 33/35/1 35/30/1
f 29/24/1 35/30/1 32/31/1
f 30/26/1 25/28/1 31/32/1
f 30/26/1 36/33/1 34/34/1
f 26/25/1 32/31/1 31/32/1
f 33/35/1 39/85/1 41/36/1
f 35/30/1 41/36/1 38/37/1
f 31/32/1 37/40/1 42/38/1
f 36/33/1 42/38/1 40/39/1
f 32/31/1 38/37/1 37/40/1
f 38/37/1 44/42/1 43/41/1
f 44/42/1 46/44/1 45/43/1
f 46/44/1 48/86/1 47/45/1
f 47/45/1 50/47/1 49/46/1
f 50/47/1 52/49/1 51/48/1
f 52/49/1 54/54/1 53/50/1
f 60/51/1 56/75/1 55/52/1
f 54/54/1 57/56/1 64/55/1
f 57/56/1 58/58/1 63/57/1
f 58/58/1 59/60/1 62/59/1
f 59/60/1 60/51/1 61/53/1
f 62/59/1 68/64/1 69/61/1
f 55/52/1 66/66/1 67/62/1
f 64/55/1 63/57/1 69/61/1
f 61/53/1 67/62/1 68/64/1
f 64/55/1 70/63/1 65/65/1
f 66/66/1 72/87/1 73/67/1
f 69/61/1 75/71/1 76/68/1
f 67/62/1 73/67/1 74/69/1
f 70/63/1 76/68/1 71/70/1
f 68/64/1 74/69/1 75/71/1
f 58/58/1 80/77/1 81/72/1
f 54/54/1 77/78/1 79/73/1
f 60/51/1 82/76/1 78/74/1
f 60/51/1 59/60/1 81/72/1
f 57/56/1 79/73/1 80/77/1
f 77/78/1 83/88/1 85/79/1
f 81/72/1 87/83/1 88/80/1
f 79/73/1 85/79/1 86/81/1
f 82/76/1 88/80/1 84/82/1
f 80/77/1 86/81/1 87/83/1
