# Blender v3.3.1 OBJ File: '4WaySection.blend'
# www.blender.org
mtllib 4Way_0.mtl
o Nav_å¹³é¢.001
v 5.500000 0.000000 -5.500000
v -5.500000 0.000000 -5.500000
v 5.500000 0.000000 5.500000
v -5.500000 0.000000 5.500000
v 1.500000 0.000000 -5.500000
v 0.500000 0.000000 -5.500000
v -0.500000 0.000000 -5.500000
v -1.500000 0.000000 -5.500000
v -1.500000 0.000000 5.500000
v -0.500000 0.000000 5.500000
v 0.500000 0.000000 5.500000
v 1.500000 0.000000 5.500000
v 5.500000 0.000000 1.500000
v 5.500000 0.000000 0.500000
v 5.500000 0.000000 -0.500000
v 5.500000 0.000000 -1.500000
v -5.500000 0.000000 -1.500000
v -5.500000 0.000000 -0.500000
v -5.500000 0.000000 0.500000
v -5.500000 0.000000 1.500000
v 2.500000 0.000000 -0.500000
v 2.500000 0.000000 0.500000
v 0.500000 0.000000 -2.500000
v 0.500000 0.000000 -0.500000
v 0.500000 0.000000 0.500000
v 0.500000 0.000000 2.500000
v -0.500000 0.000000 -2.500000
v -0.500000 0.000000 -0.500000
v -0.500000 0.000000 0.500000
v -0.500000 0.000000 2.500000
v -2.500000 0.000000 -0.500000
v -2.500000 0.000000 0.500000
v -6.500000 0.000000 -1.500000
v -6.500000 0.000000 1.500000
v 1.500000 0.000000 -6.500000
v -1.500000 0.000000 -6.500000
v 6.500000 0.000000 1.500000
v 6.500000 0.000000 -1.500000
v -1.500000 0.000000 6.500000
v 1.500000 0.000000 6.500000
vt 0.454545 0.272727
vt 0.454545 0.454545
vt 0.272727 0.454545
vt 0.000000 0.363636
vt 0.363636 0.000000
vt 1.000000 0.454545
vt 0.727273 0.545455
vt 0.727273 0.454545
vt 0.454545 0.727273
vt 0.363636 1.000000
vt 0.000000 0.636364
vt 0.545455 0.272727
vt 0.636364 0.000000
vt 1.000000 0.545455
vt 1.000000 0.636364
vt 0.636364 1.000000
vt 0.545455 0.727273
vt 0.454545 0.000000
vt 0.545455 0.000000
vt 0.545455 1.000000
vt 0.454545 1.000000
vt 0.000000 0.545455
vt 0.272727 0.545455
vt 0.000000 0.454545
vt 1.000000 0.363636
vt 1.000000 0.636364
vt 0.363636 0.000000
vt 0.636364 0.000000
vt 0.000000 0.636364
vt 0.000000 0.363636
vt 0.636364 1.000000
vt 0.363636 1.000000
vt 0.000000 0.000000
vt 0.454545 0.545455
vt 0.000000 1.000000
vt 1.000000 0.000000
vt 1.000000 0.363636
vt 0.545455 0.454545
vt 0.545455 0.545455
vt 1.000000 1.000000
vn 0.0000 1.0000 0.0000
usemtl None
s off
f 23/1/1 24/2/1 21/3/1
f 21/3/1 16/4/1 5/5/1
f 18/6/1 32/7/1 31/8/1
f 26/9/1 12/10/1 13/11/1
f 31/8/1 27/12/1 8/13/1
f 18/6/1 19/14/1 32/7/1
f 20/15/1 9/16/1 30/17/1
f 27/12/1 6/18/1 7/19/1
f 10/20/1 26/9/1 30/17/1
f 26/9/1 11/21/1 12/10/1
f 14/22/1 22/23/1 13/11/1
f 5/5/1 23/1/1 21/3/1
f 21/3/1 15/24/1 16/4/1
f 5/5/1 6/18/1 23/1/1
f 21/3/1 14/22/1 15/24/1
f 33/25/1 34/26/1 19/14/1
f 35/27/1 36/28/1 7/19/1
f 37/29/1 38/30/1 15/24/1
f 39/31/1 40/32/1 11/21/1
f 16/4/1 1/33/1 5/5/1
f 22/23/1 25/34/1 26/9/1
f 22/23/1 26/9/1 13/11/1
f 12/10/1 3/35/1 13/11/1
f 8/13/1 2/36/1 17/37/1
f 17/37/1 18/6/1 31/8/1
f 31/8/1 28/38/1 27/12/1
f 27/12/1 7/19/1 8/13/1
f 8/13/1 17/37/1 31/8/1
f 29/39/1 32/7/1 30/17/1
f 32/7/1 19/14/1 20/15/1
f 20/15/1 4/40/1 9/16/1
f 32/7/1 20/15/1 30/17/1
f 9/16/1 10/20/1 30/17/1
f 27/12/1 23/1/1 6/18/1
f 10/20/1 11/21/1 26/9/1
f 21/3/1 22/23/1 14/22/1
f 20/15/1 19/14/1 34/26/1
f 19/14/1 18/6/1 33/25/1
f 18/6/1 17/37/1 33/25/1
f 8/13/1 7/19/1 36/28/1
f 7/19/1 6/18/1 35/27/1
f 6/18/1 5/5/1 35/27/1
f 16/4/1 15/24/1 38/30/1
f 15/24/1 14/22/1 37/29/1
f 14/22/1 13/11/1 37/29/1
f 12/10/1 11/21/1 40/32/1
f 11/21/1 10/20/1 39/31/1
f 10/20/1 9/16/1 39/31/1
